<svg width="32" height="32" viewBox="0 0 32 32" fill="none" xmlns="http://www.w3.org/2000/svg">
<path d="M5 11C4.73478 11 4.48043 11.1054 4.29289 11.2929C4.10536 11.4804 4 11.7348 4 12C4 12.2652 4.10536 12.5196 4.29289 12.7071C4.48043 12.8946 4.73478 13 5 13H6.22L6.525 14.222C6.52803 14.2361 6.53136 14.2501 6.535 14.264L7.893 19.694L7 20.586C5.74 21.846 6.632 24 8.414 24H17C17.2652 24 17.5196 23.8946 17.7071 23.7071C17.8946 23.5196 18 23.2652 18 23C18 22.7348 17.8946 22.4804 17.7071 22.2929C17.5196 22.1054 17.2652 22 17 22H8.414L9.414 21H16C16.1857 20.9999 16.3676 20.9481 16.5255 20.8504C16.6834 20.7528 16.811 20.6131 16.894 20.447L19.894 14.447C19.9702 14.2946 20.0061 14.1252 19.9985 13.955C19.9908 13.7848 19.9398 13.6194 19.8502 13.4744C19.7606 13.3294 19.6355 13.2098 19.4867 13.1267C19.3379 13.0437 19.1704 13.0001 19 13H8.28L7.97 11.757C7.91583 11.5408 7.79095 11.3488 7.61521 11.2117C7.43946 11.0745 7.22293 11 7 11H5ZM18 26.5C18 26.8978 17.842 27.2794 17.5607 27.5607C17.2794 27.842 16.8978 28 16.5 28C16.1022 28 15.7206 27.842 15.4393 27.5607C15.158 27.2794 15 26.8978 15 26.5C15 26.1022 15.158 25.7206 15.4393 25.4393C15.7206 25.158 16.1022 25 16.5 25C16.8978 25 17.2794 25.158 17.5607 25.4393C17.842 25.7206 18 26.1022 18 26.5ZM8.5 28C8.89782 28 9.27936 27.842 9.56066 27.5607C9.84196 27.2794 10 26.8978 10 26.5C10 26.1022 9.84196 25.7206 9.56066 25.4393C9.27936 25.158 8.89782 25 8.5 25C8.10218 25 7.72064 25.158 7.43934 25.4393C7.15804 25.7206 7 26.1022 7 26.5C7 26.8978 7.15804 27.2794 7.43934 27.5607C7.72064 27.842 8.10218 28 8.5 28Z" fill="#B0BABF"/>
<rect x="13" y="1" width="18" height="18" rx="9" fill="#F76659"/>
<rect x="13" y="1" width="18" height="18" rx="9" stroke="white" stroke-width="2"/>
<path d="M21.9077 14.1193C23.7741 14.1193 25.1335 13.0497 25.1293 11.5753C25.1335 10.4844 24.4517 9.70028 23.2287 9.52557V9.45739C24.1747 9.25284 24.8097 8.54972 24.8054 7.5696C24.8097 6.24006 23.6761 5.15341 21.9332 5.15341C20.2372 5.15341 18.9247 6.16335 18.8906 7.625H20.4119C20.4375 6.89205 21.1193 6.43608 21.9247 6.43608C22.7386 6.43608 23.2798 6.9304 23.2756 7.66335C23.2798 8.42614 22.6491 8.93324 21.7457 8.93324H20.9744V10.152H21.7457C22.8494 10.152 23.5057 10.706 23.5014 11.4943C23.5057 12.2656 22.8366 12.794 21.9034 12.794C21.0256 12.794 20.348 12.3381 20.3097 11.6264H18.7074C18.75 13.1009 20.0668 14.1193 21.9077 14.1193Z" fill="#FFEFEB"/>
</svg>
