<svg width="24" height="24" viewBox="0 0 24 24" fill="none" xmlns="http://www.w3.org/2000/svg">
<path fill-rule="evenodd" clip-rule="evenodd" d="M5.17115 6.22115C5.92126 5.47127 6.93849 5.05001 7.99915 5.05001C9.0598 5.05001 10.077 5.47127 10.8271 6.22115L11.9991 7.39215L13.1711 6.22115C13.5401 5.83911 13.9815 5.53438 14.4695 5.32475C14.9575 5.11511 15.4824 5.00477 16.0135 5.00015C16.5447 4.99554 17.0714 5.09674 17.563 5.29787C18.0545 5.49899 18.5012 5.796 18.8767 6.17157C19.2523 6.54714 19.5493 6.99375 19.7504 7.48534C19.9516 7.97692 20.0528 8.50364 20.0481 9.03476C20.0435 9.56588 19.9332 10.0908 19.7236 10.5788C19.5139 11.0668 19.2092 11.5082 18.8271 11.8772L11.9991 18.7062L5.17115 11.8772C4.42126 11.127 4 10.1098 4 9.04915C4 7.9885 4.42126 6.97126 5.17115 6.22115Z" fill="#B0BABF"/>
</svg>
