<svg width="17" height="14" viewBox="0 0 17 14" fill="none" xmlns="http://www.w3.org/2000/svg">
<path fill-rule="evenodd" clip-rule="evenodd" d="M1.17115 1.22115C1.92126 0.471268 2.93849 0.0500067 3.99915 0.0500067C5.0598 0.0500067 6.07703 0.471268 6.82715 1.22115L7.99915 2.39215L9.17115 1.22115C9.54013 0.839112 9.98151 0.534383 10.4695 0.324747C10.9575 0.115111 11.4824 0.00476629 12.0135 0.000151027C12.5447 -0.00446424 13.0714 0.0967427 13.563 0.297866C14.0545 0.49899 14.5012 0.796002 14.8767 1.17157C15.2523 1.54714 15.5493 1.99375 15.7504 2.48534C15.9516 2.97692 16.0528 3.50364 16.0481 4.03476C16.0435 4.56588 15.9332 5.09075 15.7236 5.57877C15.5139 6.06679 15.2092 6.50817 14.8271 6.87715L7.99915 13.7062L1.17115 6.87715C0.421261 6.12704 0 5.10981 0 4.04915C0 2.9885 0.421261 1.97126 1.17115 1.22115Z" fill="#B0BABF"/>
</svg>
